<?xml version="1.0" encoding="UTF-8"?>
<svg version="1.1" xmlns="http://www.w3.org/2000/svg" width="512" height="512">
<path d="M0 0 C1.23295115 -0.00384115 2.46590229 -0.00768229 3.73621559 -0.01163983 C5.09629446 -0.01085969 6.45637328 -0.00998092 7.81645203 -0.00901413 C9.26770799 -0.01159938 10.71896324 -0.01461299 12.17021751 -0.01801753 C16.15439197 -0.02607219 20.13854839 -0.02787625 24.12273002 -0.028615 C28.4215059 -0.03046827 32.72027248 -0.03801706 37.01904297 -0.04475021 C46.41808698 -0.05832395 55.81712672 -0.06435698 65.21617889 -0.06876087 C71.08820689 -0.07152536 76.96023325 -0.07576313 82.83226013 -0.08026505 C99.09875892 -0.0924573 115.36525639 -0.10275615 131.63175964 -0.10614014 C133.19301091 -0.10646949 133.19301091 -0.10646949 134.7858026 -0.10680549 C135.82909421 -0.10702377 136.87238582 -0.10724204 137.94729233 -0.10746694 C140.06131236 -0.1079104 142.17533239 -0.10835696 144.28935242 -0.10880661 C145.86228491 -0.10913875 145.86228491 -0.10913875 147.46699381 -0.10947761 C164.44797256 -0.1134233 181.42890834 -0.13087054 198.40987051 -0.15416613 C215.85526121 -0.17790508 233.30063037 -0.19034317 250.74603748 -0.19150805 C260.53634799 -0.19242347 270.32660253 -0.19814209 280.11689758 -0.21632767 C288.45591354 -0.23176311 296.79485624 -0.2368289 305.13388377 -0.22858956 C309.38472443 -0.22469501 313.63541769 -0.22555388 317.88624001 -0.23964691 C321.78627678 -0.25245807 325.68605652 -0.25112571 329.58609331 -0.2390562 C330.98857886 -0.23711158 332.39108309 -0.24011973 333.7935425 -0.24890056 C360.69756578 -0.40652991 382.74467387 10.2888756 401.85038757 28.75642776 C410.12020141 37.04201616 415.86079859 46.56835718 420.66288757 57.19392776 C420.93721619 57.79366409 421.2115448 58.39340042 421.4941864 59.01131058 C426.10463618 69.8220204 427.23064935 80.81504766 427.17556763 92.45682144 C427.17975096 93.85494973 427.18523391 95.25307461 427.19188744 96.65119332 C427.20623002 100.4561345 427.20213276 104.26085702 427.19472063 108.06580961 C427.18996324 112.18387356 427.20252144 116.30189193 427.21273804 120.41994095 C427.22988168 128.47344819 427.23077523 136.52687726 427.22552513 144.580398 C427.22147366 151.13077866 427.22293857 157.68113632 427.22827339 164.23151588 C427.22902181 165.16598241 427.22977024 166.10044893 427.23054134 167.06323263 C427.23207291 168.96198399 427.23361126 170.86073535 427.23515631 172.7594867 C427.24886548 190.54195342 427.24345495 208.32437607 427.23197109 226.10684177 C427.22204193 242.34886434 427.23497673 258.59077295 427.25890528 274.83277795 C427.28333147 291.53938194 427.29289542 308.24593293 427.28625256 324.9525544 C427.28276795 334.32029579 427.28494204 343.68794959 427.30250359 353.05567741 C427.31726972 361.03071447 427.3178037 369.00560225 427.30043267 376.98063651 C427.29195618 381.04346209 427.28969027 385.10602151 427.30508423 389.16883278 C427.4152862 420.52269073 427.4152862 420.52269073 422.78788757 433.13142776 C422.56412693 433.74757434 422.34036628 434.36372092 422.10982502 434.99853861 C413.42894653 458.65395833 395.4119434 476.56948996 372.86161804 487.24275589 C363.05909511 491.44350742 352.23667395 494.24771373 341.56853771 494.26564884 C340.33395327 494.27010669 339.09936882 494.27456453 337.82737273 494.27915746 C336.46543069 494.27906818 335.10348865 494.27887835 333.74154663 494.27859879 C332.28830375 494.28190039 330.83506178 494.28562658 329.38182098 494.28974026 C325.39203898 494.29973499 321.40227202 494.30347299 317.41247928 494.30612957 C313.10750943 494.31004024 308.8025514 494.31961816 304.49758911 494.32834244 C294.1016983 494.34808713 283.70580655 494.35817132 273.30990168 494.36707023 C268.40931667 494.3714571 263.50873274 494.37682294 258.60814857 494.3820591 C242.30820153 494.3990707 226.00825515 494.41356305 209.70830059 494.42080784 C205.4801909 494.42271761 201.25208122 494.42463796 197.02397156 494.42659378 C195.97314621 494.42707752 194.92232087 494.42756126 193.83965234 494.42805966 C176.83158702 494.43635314 159.82359219 494.46167885 142.81555762 494.49417446 C125.33738238 494.52729486 107.85924288 494.54526117 90.3810361 494.54845208 C80.57440082 494.55061275 70.76786827 494.55929623 60.96126366 494.58491325 C52.60621683 494.60668852 44.2512977 494.6146373 35.89622571 494.60494647 C31.63889291 494.60042124 27.38182319 494.60218346 23.12452698 494.62170792 C-9.6557081 494.76382363 -9.6557081 494.76382363 -23.21211243 490.13142776 C-24.47208526 489.71894775 -24.47208526 489.71894775 -25.75751209 489.2981348 C-48.59542229 481.12523113 -66.61331534 463.68990827 -77.20820618 442.15095901 C-77.84235791 440.79392254 -78.46888042 439.43329048 -79.08711243 438.06892776 C-79.36160217 437.4690303 -79.63609192 436.86913284 -79.91889954 436.25105667 C-84.53363599 425.42643705 -85.6547731 414.42407171 -85.59979248 402.76807022 C-85.60397576 401.36581715 -85.60945869 399.96356747 -85.61611229 398.56132394 C-85.63045552 394.7449814 -85.6263574 390.92885685 -85.61894548 387.11250293 C-85.61418825 382.98216899 -85.62674615 378.85188049 -85.63696289 374.72156143 C-85.65410685 366.64399079 -85.65500002 358.56649808 -85.64974999 350.48891398 C-85.64569858 343.91898719 -85.64716335 337.34908334 -85.65249825 330.77915764 C-85.65324667 329.84191575 -85.65399509 328.90467387 -85.65476619 327.93903071 C-85.65629777 326.03464235 -85.65783611 324.13025399 -85.65938116 322.22586564 C-85.67309045 304.39046384 -85.66767973 286.55510598 -85.65619595 268.7197052 C-85.64626677 252.4291838 -85.6592016 236.13877604 -85.68313014 219.84827217 C-85.70755608 203.09194767 -85.71712033 186.33567602 -85.71047741 169.57933408 C-85.70699275 160.18364711 -85.70916726 150.78804748 -85.72672844 141.39237404 C-85.74149426 133.39354856 -85.74202895 125.39487192 -85.72465753 117.39604922 C-85.71618078 113.32107233 -85.71391575 109.24636079 -85.72930908 105.17139816 C-85.83964115 73.73663397 -85.83964115 73.73663397 -81.21211243 61.13142776 C-80.72448756 59.7966528 -80.72448756 59.7966528 -80.22701168 58.43491268 C-79.42001229 56.35483977 -78.51766094 54.37851607 -77.52461243 52.38142776 C-77.18647522 51.68170853 -76.84833801 50.98198929 -76.49995422 50.26106644 C-73.16078366 43.59721361 -68.95683667 37.88037519 -64.21211243 32.13142776 C-63.42836243 31.07955276 -62.64461243 30.02767776 -61.83711243 28.94392776 C-46.29578391 12.29250435 -23.0728602 0.02706943 0 0 Z " fill="#0C131F" transform="translate(85.21211242675781,8.868572235107422)"/>
<path d="M0 0 C0.90183517 -0.00570007 1.80367035 -0.01140015 2.73283386 -0.01727295 C4.63982995 -0.026686 6.54684203 -0.03324217 8.45385742 -0.03710938 C11.30873863 -0.04671773 14.16286843 -0.07773565 17.01757812 -0.109375 C33.08920976 -0.20306374 49.01322632 0.65309062 63.54296875 8.203125 C64.54296875 9.203125 64.54296875 9.203125 64.65649414 13.17211914 C64.65633495 14.94418107 64.6506366 16.7162476 64.640625 18.48828125 C64.63850258 19.88450966 64.63850258 19.88450966 64.63633728 21.3089447 C64.63072047 24.29453691 64.61816515 27.28005529 64.60546875 30.265625 C64.60045591 32.28450413 64.59589263 34.30338443 64.59179688 36.32226562 C64.58074558 41.28258072 64.5634697 46.24284032 64.54296875 51.203125 C61.54296875 52.203125 61.54296875 52.203125 59.1953125 51.3125 C57.85146484 50.63960937 57.85146484 50.63960937 56.48046875 49.953125 C37.23960484 40.34681997 9.03763913 37.09345867 -11.51953125 43.9296875 C-16.36456606 46.03006163 -20.75032441 48.52438646 -23.63671875 53.0546875 C-25.63863007 58.29778856 -25.25121534 64.27439222 -23.14453125 69.390625 C-12.34141359 80.69621325 2.30335349 86.08636299 16.48901367 91.86816406 C31.39501614 97.95434384 45.4365109 104.33431619 57.54296875 115.203125 C58.17460937 115.75355469 58.80625 116.30398438 59.45703125 116.87109375 C70.22727087 126.85847454 76.18871316 140.40924346 76.953125 154.95703125 C77.00134756 156.97620879 77.03138554 158.99590493 77.04296875 161.015625 C77.0493335 161.95760742 77.05569824 162.89958984 77.06225586 163.87011719 C76.76724539 180.15697518 69.85350278 194.61417783 58.54296875 206.203125 C48.56654507 215.06174211 37.44450674 220.1947187 24.79296875 224.015625 C24.10823486 224.2228418 23.42350098 224.43005859 22.71801758 224.64355469 C12.45058075 227.56619481 1.95146446 227.48029922 -8.64453125 227.515625 C-9.3962561 227.51824341 -10.14798096 227.52086182 -10.92248535 227.52355957 C-23.79384193 227.52834726 -35.93952898 226.35843085 -48.45703125 223.203125 C-49.51519043 222.94692383 -49.51519043 222.94692383 -50.59472656 222.68554688 C-57.637632 220.95451951 -64.19115744 218.88893312 -70.45703125 215.203125 C-71.62208115 212.8730252 -71.57796705 211.53065423 -71.57055664 208.93701172 C-71.57048111 208.05624969 -71.57040558 207.17548767 -71.57032776 206.26803589 C-71.56516647 205.31591217 -71.56000519 204.36378845 -71.5546875 203.3828125 C-71.55327255 202.40901642 -71.5518576 201.43522034 -71.55039978 200.43191528 C-71.54479098 197.31395427 -71.53223698 194.1960644 -71.51953125 191.078125 C-71.51451738 188.96744895 -71.50995428 186.85677178 -71.50585938 184.74609375 C-71.4948187 179.56507979 -71.47807198 174.38410748 -71.45703125 169.203125 C-68.2132931 168.14565061 -67.69833782 168.08867497 -64.41796875 169.64453125 C-63.21875194 170.34491986 -62.02368857 171.05245041 -60.83203125 171.765625 C-55.12405404 174.99144106 -49.4326636 177.51853219 -43.20703125 179.578125 C-42.49981934 179.8160376 -41.79260742 180.0539502 -41.06396484 180.29907227 C-30.79652414 183.57629195 -20.80492237 184.57633877 -10.04174805 184.57373047 C-8.02502432 184.57811306 -6.01048139 184.61460016 -3.99414062 184.65234375 C5.69215419 184.68093095 14.2353 183.45271811 22.60546875 178.328125 C27.25902827 173.22422101 28.105829 168.62045278 27.88671875 161.8828125 C27.10221303 155.76723384 23.66517311 151.54420048 18.921875 147.78125 C9.23122935 141.35264435 -1.8381145 137.15530765 -12.51953125 132.703125 C-33.17913246 124.07122219 -57.24201015 113.49554389 -66.578125 91.5703125 C-69.92686115 82.76301377 -71.83774228 74.38671093 -71.76953125 64.953125 C-71.7638916 64.12611084 -71.75825195 63.29909668 -71.75244141 62.44702148 C-71.39352337 44.15463922 -64.35080184 30.67979752 -51.45703125 18.203125 C-37.68206483 5.19206548 -18.51012313 0.0927688 0 0 Z " fill="#FDFDFD" transform="translate(189.45703125,143.796875)"/>
<path d="M0 0 C-0.33 16.17 -0.66 32.34 -1 49 C9.48623165 48.96040089 9.48623165 48.96040089 19.97241211 48.90991211 C21.26928955 48.90741455 22.56616699 48.90491699 23.90234375 48.90234375 C24.58816528 48.89722778 25.27398682 48.89211182 25.98059082 48.88684082 C27.65415231 48.88652946 29.3275958 48.93777163 31 49 C32.81565436 50.81565436 32.12861899 53.31269962 32.13894653 55.72888184 C32.13591019 56.93042908 32.13591019 56.93042908 32.1328125 58.15625 C32.13376923 58.97371704 32.13472595 59.79118408 32.13571167 60.63342285 C32.13639345 62.36515378 32.13453929 64.09688724 32.13037109 65.82861328 C32.12502279 68.48866482 32.13031612 71.1485475 32.13671875 73.80859375 C32.13605797 75.48697954 32.1347768 77.16536523 32.1328125 78.84375 C32.13483673 79.64478149 32.13686096 80.44581299 32.13894653 81.27111816 C32.11495079 86.88504921 32.11495079 86.88504921 31 88 C28.55169574 88.08843793 26.13179401 88.11528752 23.68359375 88.09765625 C22.58701195 88.09553383 22.58701195 88.09553383 21.46827698 88.09336853 C19.12464368 88.08775408 16.78110461 88.07519922 14.4375 88.0625 C12.85221492 88.05748686 11.26692834 88.05292363 9.68164062 88.04882812 C5.7877239 88.03777997 1.89387795 88.02050572 -2 88 C-1.96186286 98.27548393 -1.90238467 108.55060577 -1.81609726 118.82580471 C-1.7766861 123.59766905 -1.74446651 128.36935062 -1.72900391 133.14135742 C-1.71379529 137.75166211 -1.67927558 142.36146409 -1.63169098 146.97154427 C-1.61692041 148.7252368 -1.60896148 150.47900113 -1.60811615 152.23275566 C-1.89241248 165.23780636 -1.89241248 165.23780636 3 177 C6.49314805 180.4147091 9.14991625 181.21396851 13.890625 181.35546875 C15.6776063 181.31988726 17.46427704 181.26340609 19.25 181.1875 C21.04676344 181.13532769 22.84364265 181.08696016 24.640625 181.04296875 C25.82446777 180.99692505 25.82446777 180.99692505 27.03222656 180.94995117 C29 181 29 181 31 182 C31.07418046 186.35990873 31.12861544 190.71948279 31.16479492 195.07983398 C31.17987768 196.56297199 31.20034689 198.04606544 31.22631836 199.52905273 C31.26272616 201.66140745 31.27973073 203.79317235 31.29296875 205.92578125 C31.3086792 207.20880127 31.32438965 208.49182129 31.34057617 209.8137207 C31 213 31 213 29.66162109 214.86914062 C21.17415491 220.64550609 8.56171481 220.41380323 -1.25 220.5 C-2.32580322 220.51828857 -3.40160645 220.53657715 -4.51000977 220.55541992 C-17.31512622 220.45849305 -29.4996722 216.21429835 -38.84375 207.2265625 C-44.76174319 200.07062175 -49.13250775 189.23592319 -49.12025452 179.87445068 C-49.12162918 179.06119324 -49.12300385 178.24793579 -49.12442017 177.41003418 C-49.12082489 176.52674438 -49.11722961 175.64345459 -49.11352539 174.73339844 C-49.11367142 173.79647156 -49.11381744 172.85954468 -49.1139679 171.89422607 C-49.11327157 168.79925212 -49.10549223 165.70433844 -49.09765625 162.609375 C-49.09579108 160.46274854 -49.09436764 158.31612166 -49.09336853 156.16949463 C-49.08955118 150.52078068 -49.07972754 144.87209246 -49.06866455 139.22338867 C-49.05843364 133.45882516 -49.0538673 127.69425748 -49.04882812 121.9296875 C-49.0381046 110.61978037 -49.02103753 99.30989232 -49 88 C-49.6612085 88.00523682 -50.32241699 88.01047363 -51.00366211 88.01586914 C-53.98159851 88.03657656 -56.95951982 88.04964012 -59.9375 88.0625 C-61.49887695 88.07506836 -61.49887695 88.07506836 -63.09179688 88.08789062 C-64.08115234 88.09111328 -65.07050781 88.09433594 -66.08984375 88.09765625 C-67.46450806 88.10551147 -67.46450806 88.10551147 -68.86694336 88.11352539 C-71 88 -71 88 -72 87 C-72.10099488 84.27275721 -72.13970529 81.57137477 -72.1328125 78.84375 C-72.13376923 78.02628296 -72.13472595 77.20881592 -72.13571167 76.36657715 C-72.13639345 74.63484622 -72.13453929 72.90311276 -72.13037109 71.17138672 C-72.12502279 68.51133518 -72.13031612 65.8514525 -72.13671875 63.19140625 C-72.13605797 61.51302046 -72.1347768 59.83463477 -72.1328125 58.15625 C-72.13483673 57.35521851 -72.13686096 56.55418701 -72.13894653 55.72888184 C-72.11495079 50.11495079 -72.11495079 50.11495079 -71 49 C-69.36527118 48.91299658 -67.72685945 48.89298937 -66.08984375 48.90234375 C-65.10048828 48.90556641 -64.11113281 48.90878906 -63.09179688 48.91210938 C-62.05087891 48.92048828 -61.00996094 48.92886719 -59.9375 48.9375 C-58.37032227 48.94426758 -58.37032227 48.94426758 -56.77148438 48.95117188 C-54.1809334 48.96300087 -51.59049441 48.97948311 -49 49 C-48.95101563 48.25621094 -48.90203125 47.51242188 -48.8515625 46.74609375 C-48.58336619 42.8295028 -48.29622352 38.91455064 -48 35 C-47.93022949 34.07348633 -47.86045898 33.14697266 -47.78857422 32.19238281 C-47.55499073 29.14835851 -47.30992404 26.10542829 -47.0625 23.0625 C-46.98789551 22.08015381 -46.91329102 21.09780762 -46.83642578 20.08569336 C-45.72192362 6.72192362 -45.72192362 6.72192362 -43 4 C-40.5076546 3.6255301 -38.03076597 3.30765037 -35.52734375 3.02734375 C-34.3926339 2.8962899 -34.3926339 2.8962899 -33.23500061 2.7625885 C-31.62704673 2.57809259 -30.01883621 2.39582224 -28.41040039 2.21557617 C-25.97136405 1.94130799 -23.533545 1.6577132 -21.09570312 1.37304688 C-19.53131481 1.19474292 -17.96686339 1.01699171 -16.40234375 0.83984375 C-15.32061134 0.71330666 -15.32061134 0.71330666 -14.21702576 0.58421326 C-13.52013138 0.50735794 -12.823237 0.43050262 -12.10522461 0.35131836 C-11.50423447 0.28327499 -10.90324432 0.21523163 -10.28404236 0.14512634 C-6.86258658 -0.0722704 -3.42835543 0 0 0 Z " fill="#FDFDFD" transform="translate(350,151)"/>
</svg>
